<?xml version="1.0" encoding="utf-8"?>
<!-- https://colorhunt.co/palette/155263ff6f3cff9a3cffc93c-->
<svg version="1.1" id="Calque_1" xmlns="http://www.w3.org/2000/svg" xmlns:xlink="http://www.w3.org/1999/xlink"
	 viewBox="111.778 329.7 362.823 185.344" fill="#FF6F3C">
<path d="M268.2,514.7c-27.3,0-54.6,0-81.9,0c-4.1,0-8.2,0.2-12.2-0.1c-11.1-0.9-19.1-6.3-23.2-16.7c-3.1-7.9-2.3-15.8,2.1-23.1
	c3.4-5.6,8.4-9.3,14.6-11.2c1.1-0.3,2.2-0.3,3.3-0.4c0.5,0,1.1,0,1.6,0c2.2-0.1,4.4-0.4,6.5-0.4c7.8-0.1,15.6,0,23.4,0
	c3.7,0,6.6-2.1,7.8-5.2c1.5-3.8-0.9-8.5-4.9-9.6c-1.9-0.5-3.9-0.6-5.9-0.6c-7.1-0.1-14.1,0-21.2,0c-12.9,0-25.9,0-38.8,0
	c-4.9,0-9.6-0.9-13.9-3.2c-7.2-3.9-11.8-9.9-13.2-18c-1.9-10.3,1.4-19,9.6-25.6c4.7-3.8,10.3-5.4,16.3-5.5c8.7-0.1,17.4,0,26.1,0
	c20.7,0,41.4-0.1,62.1-0.1c10.1,0,20.3,0.1,30.4,0.1c1.4,0,1.5,0.1,1.5,1.5c0,16.5,0,32.9,0,49.4c0,1.4,0,1.5-1.5,1.5
	c-7.2,0-14.4,0-21.6,0.1c-3.9,0-7.1,2.5-8,5.9c-1.1,4.5,2.3,9.1,7.1,9.4c1,0.1,2,0.1,3.1,0.1c5.3,0,10.5,0,15.8,0
	c24.8-0.1,49.5-0.3,74.3-0.4c11.6-0.1,23.2-0.2,34.8,0.1c9.4,0.2,16.8,4.5,21.6,12.6c4.8,8.1,5.2,16.7,0.9,25.2
	c-4.9,9.7-13.1,14.4-23.9,14.5c-10.5,0.1-21,0-31.5,0C308.9,514.8,288.5,514.8,268.2,514.7C268.2,514.8,268.2,514.7,268.2,514.7z"/>
<path fill="#FF9A3C" d="M251.2,329.8c18.3,0,36.7,0,55,0c4.6,0,9.1,0.5,13.2,2.6c8,4,12.7,10.4,14.5,19c2.1,10.4-3.5,23.1-14.7,28.1
	c-3.8,1.7-7.8,2.5-12,2.5c-18.5,0-37,0-55.5,0c-18.8,0-37.7,0-56.5,0c-4.4,0-8.7-0.7-12.6-2.7c-7.5-3.7-12.3-9.7-14.1-17.9
	c-2.8-12.9,4.1-25.1,15.7-29.8c3.8-1.5,7.7-1.9,11.7-1.9C214.4,329.8,232.8,329.8,251.2,329.8z"/>
<path fill="#FF9A3C" d="M390.6,329.9c6.8,0,13.7,0,20.5,0c4.8,0,9.3,1,13.5,3.4c7,4.1,11.3,10.1,12.7,18c1.7,10-1.5,18.4-9.2,24.9
	c-4.6,3.9-10,5.8-16,5.8c-14.4,0.1-28.7,0.2-43.1,0c-12-0.2-22.1-8.1-24.9-19.8c-3.4-14,4.7-27.6,18.3-31.3c2.8-0.8,5.9-1,8.9-1
	C377.7,329.7,384.1,329.8,390.6,329.9C390.6,329.8,390.6,329.8,390.6,329.9z"/>
<path fill="#FFC93C" d="M448,394.9c14.9,0.2,26.7,11.5,26.6,27c-0.1,14.6-11.7,26.2-26.8,26.2c-14.5,0-26.6-11.7-26.4-26.9
	C421.7,406.6,433.2,395.1,448,394.9z"/>
<path d="M318.6,410.6c0-4.7,0-9.4,0-14.1c0-1.1,0.4-1.4,1.4-1.4c7.8,0,15.6,0,23.4,0c0.9,0,1.4,0.1,1.4,1.2c0,8.9,0,17.8-0.1,26.8
	c0,3.4-0.7,6.6-2.2,9.8c-2.4,5.2-7.7,7.1-12.7,6.4c-5.3-0.7-8.3-3.9-9.9-8.7c-1-3.1-1.2-6.2-1.2-9.4
	C318.6,417.6,318.6,414.1,318.6,410.6C318.6,410.6,318.6,410.6,318.6,410.6z"/>
<path d="M322.2,447.2c-0.6,0.1-0.9,0.2-1.1,0.2c-5.4,0-10.8,0-16.2,0c-0.9,0-1.6-0.4-2.1-1.1c-6.6-9-13.1-18-19.8-27
	c-0.6-0.8-0.5-1.3,0.1-2c6.1-7,12.1-14,18.2-21c0.7-0.8,1.5-1.2,2.6-1.2c0.9,0.1,1.9,0.1,2.8,0c1.1-0.1,1.4,0.4,1.4,1.5
	c0,8,0,16,0,24.1c0,4.3,0.3,8.6,1.7,12.8c2,5.9,5.4,10.6,11.3,13.2C321.3,446.7,321.6,446.9,322.2,447.2z"/>
<path d="M376.8,413.5c0.5,0.9,0.9,1.7,1.4,2.6c3.4,6.5,6.8,13,10.2,19.5c0.5,0.9,0.9,1.9,1.5,2.7c0.3,0.4,0.9,0.7,1.4,0.8
	c0.6,0.1,1.3,0,1.9,0c3.5,0,2.6,0.4,4.2-2.5c3.8-7.1,7.5-14.3,11.2-21.4c0.3-0.6,0.7-1.2,1-1.8c0.1,0,0.2,0.1,0.3,0.1
	c0.1,0.2,0.2,0.4,0.2,0.6c0,10.5,0,21-0.1,31.4c0,1.8,0,1.8-1.8,1.8c-10.1,0-20.1,0-30.2,0c-1.4,0-1.5-0.1-1.5-1.5
	c0-10.4,0-20.9,0-31.3c0-0.3,0-0.6,0.1-0.9C376.5,413.6,376.6,413.6,376.8,413.5z"/>
<path d="M341.2,447.2c0.6-0.3,0.9-0.5,1.2-0.7c5.7-2.6,9.1-7.1,11.1-12.9c1.4-4,1.8-8.1,1.8-12.3c0-8.2,0-16.5,0-24.7
	c0-1.5,0-1.6,1.6-1.6c2.5,0,5,0,7.5,0c0.9,0,1.3,0.3,1.3,1.2c0,16.6,0,33.2,0,49.8c0,0.9-0.2,1.3-1.2,1.3c-7.4,0-14.8,0-22.2,0
	C342.1,447.4,341.8,447.3,341.2,447.2z"/>
<path d="M408.7,395.1c-1.2,2.2-2.1,4-3.1,5.9c-4,7.6-7.9,15.1-11.9,22.7c-0.2,0.3-0.4,0.6-0.7,0.8c-0.2-0.3-0.5-0.5-0.7-0.8
	c-4.8-9.2-9.6-18.3-14.3-27.5c-0.4-0.8-0.3-1,0.8-1c8.9,0,17.8,0,26.8,0C406.5,395.1,407.5,395.1,408.7,395.1z"/>
<path d="M292.2,447.3c-0.6,0-0.9,0.1-1.3,0.1c-6.9,0-13.8,0-20.6,0c-1.5,0-1.6,0-1.6-1.6c0-4.2,0-8.3,0-12.5c0-0.7,0.4-1.5,0.8-2.1
	c1.7-2,3.6-4,5.4-5.9c0.9-0.9,1-0.9,1.7,0.1c5,7,10,14,14.9,20.9C291.8,446.5,291.9,446.8,292.2,447.3z"/>
<path d="M291.1,395.2c-7.5,8.5-14.8,16.7-22,24.9c-0.1,0-0.2-0.1-0.3-0.1c0-0.3-0.1-0.5-0.1-0.8c0-7.6,0-15.2,0-22.8
	c0-1,0.3-1.3,1.3-1.3c6.7,0,13.3,0,20,0C290.2,395.1,290.5,395.1,291.1,395.2z"/>
</svg>
